<svg id="Layer_1" data-name="Layer 1" xmlns="http://www.w3.org/2000/svg" viewBox="0 0 532.89 598.28"><defs><style>.cls-1{fill:#fff;}.cls-1,.cls-6{fill-rule:evenodd;}.cls-2{fill:#010101;}.cls-3,.cls-4{fill:none;stroke:#000;}.cls-3{stroke-miterlimit:10;}.cls-4,.cls-5{stroke-linecap:round;}.cls-4{stroke-linejoin:bevel;stroke-width:3px;}.cls-5{fill:#eb3192;stroke:#231f20;stroke-linejoin:round;stroke-width:6px;}.cls-6{fill:#ed1c24;}.cls-7{fill:#00a651;}.cls-8{fill:#0092c8;}.cls-9{fill:#f7ec00;}.cls-10{fill:#f36c21;}</style></defs><path class="cls-1" d="M381.78,541.55c-10.91,1.73-69.79-88.39-104.38-99.61-32-10.39-136.12,43.56-149.16,40.56-44.15-4-35.89-2.32-42.15-11-1.68-2.33,43.15-32,49.17-34,18.07-17-54.09,31-57.2,28-12.34-11.75-36.86-43.12-24.58-62.41a7.62,7.62,0,0,0-1-4.65c-.51-1-1.11-2-1.56-3-.18-.4,57.09-38.45,87.37-81.94,25.48-36.6,30.3-80.66,30.25-81,167.11-111.42,332.42,45.86,382.33,65C940.71,447,608.26,715.56,381.78,541.55Z"/><path d="M381.78,538.05c-.32,0-.33.06-.78-.21a26.85,26.85,0,0,1-2.84-2,81.18,81.18,0,0,1-7.49-7.35c-7.25-7.74-14-15.92-20.88-24-16-18.8-32-38.47-51.31-53.93-6.64-5.31-14.23-10.93-22.74-12.67s-17.63-.4-26.1,1.25c-23.94,4.66-47,13.83-69.71,22.58-10.24,3.95-20.43,8-30.74,11.76-5.9,2.15-13.15,5.16-19,5.62-1.74.13-1,0-3.9-.27-4.56-.44-9.13-.81-13.69-1.22-5.15-.45-10.35-.77-15.45-1.57a21.86,21.86,0,0,1-3.66-.77c-.44-.14-1.3-.65-1.08-.45-.86-.78-.13,0-.79-1a26.41,26.41,0,0,0-1.36-2.31c-.17-.21-.69-1.38-.91-1.38l-.18,2.62.11-.19c.28.11-1,.44,0,0s2.34-2.17,3.26-2.93c3.65-3,7.54-5.7,11.41-8.4,8.74-6.11,17.65-12.06,26.85-17.45,3.45-2,10.94-4.43,10.79-9.73-.21-7.28-9.92-1.54-12.74,0-15.25,8.2-29.67,17.92-45.11,25.77-1.13.58-2.41,1.25-3.5,1.69-.32.14-2.64,1.05-1.59.66.58-.21,1.18,1.16.55-.33-.4-1-2-2.07-2.75-2.85-2.22-2.38-4.35-4.87-6.37-7.43C62,441.17,52.37,426.91,53.72,413c.33-3.32,2-5.59,3-8.6,1.26-3.81-1.14-7.49-2.79-10.75v3.54c-.47,1-1,1,.39,0s2.6-1.87,3.89-2.82q6.24-4.53,12.35-9.24a463.09,463.09,0,0,0,36.21-30.71c13.24-12.56,25.82-26.12,36-41.32,10.39-15.52,17.86-33,23.06-50.93,2.69-9.3,6-19.9,6.2-29.7l-1.73,3c43.21-28.61,93.28-42.62,145.08-38.23,44.22,3.74,86.59,19.64,125.7,40,30.58,15.92,58.92,35.32,88.43,53,13.61,8.16,28,13.3,42.55,19.52a474.08,474.08,0,0,1,66.49,34.27c29.83,18.77,58.82,42.56,75.81,74.06,11.82,21.93,16.2,47.24,9.65,71.5-6.45,23.86-22.07,44.08-40.9,59.64-22,18.21-48.79,30.42-76.32,37.61A248.64,248.64,0,0,1,510,592.33a264.94,264.94,0,0,1-102.2-37.06,294.1,294.1,0,0,1-24.25-16.74c-3.58-2.74-7.07,3.34-3.53,6,53.75,41.13,121.6,62.5,189.28,56,52.34-5,107.73-26.46,140.9-69,13.93-17.87,23-39.35,23.85-62.16.89-24.93-8.4-49-22.63-69.15-20.4-28.86-49.52-50.79-79.74-68.5a517.94,517.94,0,0,0-65.47-31.88c-12.45-5.11-24-10-35.46-17-27.61-16.78-54.35-34.83-83-49.95-35.93-19-74.37-34.39-114.73-40.53-44.81-6.81-90.2-1.29-131.53,17.59q-8.86,4-17.38,8.82-4.41,2.46-8.71,5.1c-2.78,1.69-6.39,3.31-8.72,5.57-2.67,2.59-2.3,7.47-3,11.1-3.95,21.3-11.17,42.3-22.08,61-12.2,20.95-29.52,38.72-47.44,54.84a498.33,498.33,0,0,1-40.82,32.79c-3,2.15-6.82,3.73-5.56,8,.89,3,2.43,4,1,7.07A24.57,24.57,0,0,0,47,410.44,35.46,35.46,0,0,0,48,425c2.44,9.51,7.56,18.33,13.26,26.24a131.79,131.79,0,0,0,8.91,11.09c1.82,2,4.44,5.85,7.21,6.68,3.07.91,7.17-1.73,9.75-3,5.33-2.69,10.51-5.71,15.67-8.71,10.59-6.15,21-12.8,31.91-18.36,1.16-.59,3-1,3.53-1.57-.53.62-4.14-4.24-3.43-4-1.14-.38,1.08-.62,0-.2.5-.2-.79.77-1.19,1.19-1.19,1.21,1.27-.56.26,0-.44.26-1,.42-1.49.65-.91.44-1.79.92-2.68,1.41-2.69,1.5-5.32,3.12-7.94,4.75-12.22,7.62-25.44,15.42-36,25.24-3.45,3.18-3.43,5.36-1,9.26,1.32,2.15,2.44,4.2,4.73,5.46,3.94,2.17,9.27,2.19,13.61,2.63,8.81.89,18.09,2.49,26.93,2.39,4.18,0,8.51-1.59,12.43-2.85,6.39-2.06,12.68-4.46,19-6.86,16.12-6.15,32.13-12.57,48.4-18.32,15.7-5.54,31.92-11.11,48.5-13.32,5.58-.74,11.67-1.25,17.18.22,5.84,1.57,11.13,5.19,15.91,8.77,13.84,10.37,25.65,23.59,37.06,36.51s22.09,26.16,33.51,38.92a116.58,116.58,0,0,0,11.38,11.61c2.26,1.91,5.36,4.59,8.57,4.26C386.22,544.59,386.27,537.58,381.78,538.05Z"/><path class="cls-2" d="M250.68,205.1c-.17-.81-.26-1.58-.49-2.41C249.89,202.63,250.37,204.26,250.68,205.1Z"/><path class="cls-3" d="M250.68,205.1c-.17-.81-.26-1.58-.49-2.41C249.89,202.63,250.37,204.26,250.68,205.1Z"/><path class="cls-4" d="M184,261.33c7.54-4.93,18.18,5.44,25.8,9.26-4.22,6-11.22,13.79-11.67,14.49-5.48,8.64-26.71,9.57-32.39-1.7C165.69,283.38,176.41,266.26,184,261.33Z"/><line class="cls-4" x1="166.48" y1="282.5" x2="209.13" y2="271"/><path class="cls-5" d="M388.17,270.84a203.87,203.87,0,0,0-66.44,59.07c9.3-33.61,18-68.1,15.85-102.91l18.3.08c-37.6-9.2-79.52,1.47-108.08,27.51,15.83-14.25.95-53.82-4.81-71.59l8,35.47c-14.1,7.12-21.29,22.82-35.51,29,3.55-12.7,6.91-32.24-5.1-41.21l.63,6.15c-18.8-1.82-38.23,19.32-51.81,30.76,5.24-6.54,35.14-44.94,40.3-50.9-3.65-9.85-13.47-18-15.61-28.22-12.95-10.68-17.88-20.27-23.39-33.67-12-10.06-18.34-21.68-23.41-33.67C122.9,88,120.56,76,113.66,65.18c-10-8.31-15.14-18-19-28-.28-.15-11.66-24.56-8.35-27,9.35-5.11,70.25,65.79,75.57,75.5,14.06,8.31,19.78,19,25.73,29.56,14.37,6.69,20.08,21.58,29.82,31.86,6.13-1.68-1.16-10.45,1.18-15.58,2-1.82.31,3,3.68,3.14.71-6.59.84-20.08,9.49-20.68-5.5,13.32.14,23.53,7.28,33.31,5.85-7.9,14.73-18,21.06-31.52,15.14,5.12,13.28,20.7,18.44,30.89,31.81-5.53,26.48-1.91,54.71,9,7.88,1.57,18-6.09,25.6-3,4,3.61-3.77,6.75-3.46,10,11.32,2.28,23.74,8.54,34.75,9.71-1.44,4.85-9.82,6.29-14,9.46,14.57,2.27,29.56-6.95,44.34,4.26-5.22,4-16.62-1.79-18.53,5.87,23.7,19.14,89.81,21.72,94.17,52.72-5.22-2.14-8.77-6.87-15.8-6.68-.34,3.1,2.74,5.24,6.87,7.1,16.14,16.51,15.46,37.73,27.43,55.41-13-1.64-28.45-12.06-38.82-4.41,30.34,16.26,25.22,42.41,47.1,61-10.08,5.72-27.2-26.22-41.82-29.91,22.06,16.48,12.27,41.86,15.15,63.7-2.05,1.47-5.43-.24-5-2.78-3.28,3.76,6.91,17.62-.88,26.59-5.61.65-4.1-9-10.62-8.12,4.15,9.87,13.29,21.48,4.35,32.75-4.31-4.5-5.43-12.75-13.85-12.07-.1,10.65,4.33,20,13.49,28.11-5.74,4.44-17.55-3.76-22-9.09,3.17,9.92,8.55,22.34-.35,33.38-4.76-6.55-3.55-16.83-15.19-19.33,1.94,17.24-48.7,65.72-57.76,86-13.13-21.17-19.68-56.9-12.79-79.86l35.82,14.62c-20.15-11.16-41.22-22.59-64.25-23.68-2.69-.13,8.26-53.85,21.66-74.25l29.57-13.72a214.77,214.77,0,0,1-64.32,23.76c21.27-28.12,16.68-63,21.64-95.51"/><path class="cls-6" d="M113.09,59.64c-6.91-5.54-15.25-19.21-17.92-25.92-.19-.1-8.3-24.16-8.49-24.25l14.76,12.32c12.86,14.92,20.78,16.3,30.87,32Z"/><path class="cls-3" d="M113.09,59.64c-6.91-5.54-15.25-19.21-17.92-25.92-.19-.1-8.3-24.16-8.49-24.25l14.76,12.32c12.86,14.92,20.78,16.3,30.87,32Z"/><path class="cls-7" d="M164.56,89.6s-17.34,18.15-22,13.37,15.73,33.26,20.8,29.49,27.46-12.2,26-14S169.69,90.28,164.56,89.6Z"/><path class="cls-3" d="M164.56,89.6s-17.34,18.15-22,13.37,15.73,33.26,20.8,29.49,27.46-12.2,26-14S169.69,90.28,164.56,89.6Z"/><path class="cls-8" d="M189.56,118.5s-18.12,8.42-27.09,14c-.36.23,38.45,56.3,34.68,50.15-2.39-3.92,16-32.45,18.5-34.16C217.73,147.11,195.1,119.15,189.56,118.5Z"/><path class="cls-3" d="M189.56,118.5s-18.12,8.42-27.09,14c-.36.23,38.45,56.3,34.68,50.15-2.39-3.92,16-32.45,18.5-34.16C217.73,147.11,195.1,119.15,189.56,118.5Z"/><path class="cls-9" d="M144.55,66.05s-14.89,16.66-19,12.21,13.85,30.83,18.22,27.38,24-12.43,22.7-14.14S149,66.71,144.55,66.05Z"/><path class="cls-3" d="M144.55,66.05s-14.89,16.66-19,12.21,13.85,30.83,18.22,27.38,24-12.43,22.7-14.14S149,66.71,144.55,66.05Z"/><path class="cls-10" d="M128.89,49s-14,13.43-17.73,10,12.33,24.24,16.43,21.44S149.67,71.29,148.46,70,133,49.49,128.89,49Z"/><path class="cls-3" d="M128.89,49s-14,13.43-17.73,10,12.33,24.24,16.43,21.44S149.67,71.29,148.46,70,133,49.49,128.89,49Z"/><path d="M198,183.12a108.59,108.59,0,0,1,7.74-17.77,83.46,83.46,0,0,1,4.85-8c1.36-1.94,3-3.69,5.22-4.27,3.74-1,2.15-6.77-1.59-5.79C207.63,149,204,156.06,201,161.53a115.64,115.64,0,0,0-8.79,20,3,3,0,1,0,5.79,1.59Z"/></svg>