<svg id="Layer_1" data-name="Layer 1" xmlns="http://www.w3.org/2000/svg" viewBox="0 0 532.89 598.28"><defs><style>.cls-1{fill:#fff;}.cls-1,.cls-6{fill-rule:evenodd;}.cls-2{fill:#010101;}.cls-12,.cls-3,.cls-4{fill:none;stroke:#000;}.cls-12,.cls-3{stroke-miterlimit:10;}.cls-4,.cls-5{stroke-linecap:round;}.cls-4{stroke-linejoin:bevel;stroke-width:2px;}.cls-5{fill:#eb3192;stroke:#231f20;stroke-linejoin:round;stroke-width:6px;}.cls-6{fill:#ed1c24;}.cls-7{fill:#00a651;}.cls-8{fill:#0092c8;}.cls-9{fill:#f7ec00;}.cls-10{fill:#f36c21;}.cls-11{fill:#e2acca;}.cls-12{stroke-width:3px;}.cls-13{fill:#231f20;}</style></defs><path class="cls-1" d="M383,541.55c-10.88,1.73-69.55-88.39-104-99.61-31.89-10.39-67.57,27.9-106.69,56.58-18.56,19.69-38.7,8.67-44.94,0-1.67-2.32,56.91-85,49.92-89-12-13-108.84,42.87-111.93,39.91-12.3-11.74-21.74-27.05-9.5-46.34a7.55,7.55,0,0,0-1.05-4.65c-.51-1-1.1-2-1.55-3-.17-.4,56.89-38.45,87.07-81.94,25.39-36.6,30.19-80.66,30.14-81,166.53-111.42,331.26,45.86,381,65C940,447,608.69,715.56,383,541.55Z"/><path d="M383,538.05c-.55.06,0,.25-.63-.13a21.65,21.65,0,0,1-2.58-1.75,69.18,69.18,0,0,1-7.07-6.84c-6.78-7.17-13.1-14.8-19.47-22.33-15.29-18.07-30.49-36.65-48.33-52.3-6.82-6-14.23-11.9-22.74-15.3-11.51-4.59-24-2.68-35.21,1.94-14.45,6-27.15,15.61-39.42,25.16-7.05,5.48-14,11.13-21,16.68-3.68,2.91-7.37,5.81-11.11,8.64-3.93,3-7.43,6.54-11.45,9.35-5.92,4.14-13,5.92-20.1,4.13a26.36,26.36,0,0,1-7.53-3.24,25.17,25.17,0,0,1-3.17-2.34c-.6-.53-1.68-2.22-2.42-2.46-1.1-.35.05,1.75,0,1.7s.09-.19,0-.14a11.75,11.75,0,0,0,1.32-2.48c1.5-2.69,3.15-5.3,4.78-7.9,10.34-16.52,21.2-32.71,31.2-49.44,4-6.67,8-13.41,11.11-20.56,1-2.22,2.07-4.68,2.13-7.15a6,6,0,0,0-2.4-5c-4.72-3.28-10.79-2.38-16.11-1.3-8.59,1.75-16.9,5-25,8.25-18.84,7.62-37,16.7-55.37,25.46-5.29,2.53-10.57,4.94-16,7.09-1.57.62-.59-.17-.37.25.32.63.3-.37.18-.66-.2-.5-1.15-1.17-1.53-1.57a57,57,0,0,1-4.54-5.39c-4.81-6.58-7.74-14.4-6-22.6.92-4.36,4-7.75,5.06-11.85,1-3.64-1.42-7.27-3-10.33v3.54c-.46,1-1,1,.39,0s2.58-1.87,3.87-2.82q6.2-4.51,12.25-9.19a460.52,460.52,0,0,0,36.14-30.76c13.2-12.56,25.74-26.12,35.88-41.31,10.36-15.54,17.8-33,23-50.94,2.69-9.3,6-19.9,6.18-29.7l-1.73,3C215.17,207,265,193,316.52,197.26c44.22,3.71,86.56,19.67,125.63,40.08,30.41,15.89,58.6,35.25,88,52.91,13.6,8.18,27.95,13.34,42.53,19.59,22.91,9.83,45.31,21,66.4,34.37,29.67,18.76,58.45,42.53,75.32,73.91,11.83,22,16.17,47.39,9.58,71.71-6.45,23.77-22,43.94-40.74,59.48-22,18.25-48.78,30.49-76.32,37.66a246.79,246.79,0,0,1-96.24,5.34,263.51,263.51,0,0,1-101.63-37,291.79,291.79,0,0,1-24.23-16.78c-3.57-2.74-7.06,3.33-3.54,6,52.65,40.42,118.91,61.81,185.34,56.28,51.83-4.32,106.67-24.68,140.73-65.59,14.23-17.09,24.1-37.56,26.34-59.83,2.42-24-4.89-47.92-17.52-68.22-17.48-28.09-43.79-49.92-71.34-67.63A454.8,454.8,0,0,0,584.4,307.4C569.67,300.82,554.08,295.92,540,288c-25.87-14.66-50.16-32-76-46.66-33.94-19.28-70-35.76-108.1-44.72C314,186.72,270,186.74,228.8,200.05a233.47,233.47,0,0,0-34,14.09q-8.15,4.13-16,8.87c-3.81,2.3-10.73,4.92-11.9,9.53-.89,3.51-1.12,7.65-1.9,11.45a209.59,209.59,0,0,1-7.83,28.17C141.46,316.63,107.11,349.58,70.71,378c-5.12,4-10.34,7.89-15.6,11.71-1.1.8-2.26,1.55-3.3,2.41-2.46,2.06-2,3.61-.84,6.58,1.51,3.83,0,5.59-1.52,9.06A34.77,34.77,0,0,0,47,416.26,31.54,31.54,0,0,0,48.69,432,45.84,45.84,0,0,0,56,444.43c2.16,2.72,5.46,7.93,9.15,8.54,2.75.46,6.11-1.44,8.52-2.48,4.78-2.05,9.47-4.32,14.15-6.57,13.7-6.58,27.35-13.27,41.27-19.38,12-5.29,25-11.38,38.13-13.2,1.36-.19,9.05-.38,8.3,1.2-.09.2-1.46-1.55-1.08-1.26-1-.73.44-.46-.08-.12.19-.13-.05.36-.27,1.12a35.53,35.53,0,0,1-2.11,5.25c-11.72,24.71-28.59,47-42.88,70.22-1.68,2.73-4.12,5.85-5,9-1.31,4.9,5.15,9.1,8.72,11.34a31.12,31.12,0,0,0,26.09,3.43,39.45,39.45,0,0,0,13.24-8c5.34-4.66,11-8.85,16.59-13.24,19.47-15.32,39-34.28,62.54-43.2,8.78-3.33,18.36-4.79,27.39-1.58,5.86,2.08,11.15,5.85,16,9.68,26.58,21,46.53,49.54,69,74.62a111.44,111.44,0,0,0,10.77,11c2.24,1.89,5.36,4.59,8.55,4.26C387.44,544.59,387.48,537.58,383,538.05Z"/><path class="cls-2" d="M252.35,205.1c-.16-.8-.25-1.58-.48-2.4C251.57,202.63,252.05,204.26,252.35,205.1Z"/><path class="cls-3" d="M252.35,205.1c-.16-.8-.25-1.58-.48-2.4C251.57,202.63,252.05,204.26,252.35,205.1Z"/><path class="cls-4" d="M182.79,263.55c6.39-4.2,15.41,4.62,21.87,7.87-3.58,5.09-9.51,11.73-9.89,12.32-4.64,7.36-22.63,8.14-27.45-1.45C167.32,282.29,176.4,267.73,182.79,263.55Z"/><line class="cls-4" x1="167.45" y1="282.5" x2="209.95" y2="271"/><path class="cls-5" d="M389.36,270.84a203.31,203.31,0,0,0-66.21,59.08c9.28-33.62,18-68.11,15.8-102.92l18.24.08c-37.47-9.2-79.24,1.47-107.71,27.51,15.78-14.25,1-53.81-4.79-71.58l8,35.46c-14.05,7.12-21.22,22.83-35.38,29,3.53-12.7,6.88-32.24-5.08-41.21l.63,6.15c-18.74-1.82-38.1,19.32-51.63,30.76,5.22-6.54,35-44.94,40.15-50.89-3.64-9.86-13.42-18-15.55-28.23-12.91-10.68-17.82-20.27-23.31-33.67-11.94-10.06-18.28-21.68-23.33-33.67C125,88,122.69,76,115.81,65.18c-9.94-8.31-15.08-18-18.94-28-.27-.16-11.62-24.57-8.32-27,9.32-5.11,70,65.79,75.3,75.5,14,8.31,19.72,19,25.64,29.56,14.32,6.69,20,21.58,29.73,31.86,6.1-1.67-1.17-10.45,1.17-15.58,2-1.82.3,3,3.66,3.14.71-6.59.84-20.08,9.46-20.68-5.48,13.32.14,23.53,7.26,33.31,5.83-7.9,14.67-18,21-31.52,15.09,5.12,13.24,20.71,18.38,30.9,31.7-5.54,26.39-1.92,54.52,9,7.85,1.57,18-6.09,25.51-3,4,3.61-3.76,6.75-3.45,10,11.28,2.28,23.66,8.53,34.63,9.71-1.43,4.84-9.78,6.28-14,9.46,14.53,2.26,29.46-7,44.19,4.25-5.2,4-16.56-1.79-18.46,5.87,23.62,19.14,89.49,21.72,93.84,52.72-5.2-2.14-8.74-6.87-15.74-6.68-.35,3.1,2.72,5.24,6.84,7.1,16.08,16.51,15.4,37.73,27.33,55.41-12.94-1.63-28.34-12.06-38.68-4.41,30.23,16.26,25.13,42.42,46.93,61-10,5.72-27.1-26.22-41.67-29.91,22,16.48,12.23,41.86,15.1,63.7-2,1.47-5.41-.23-4.94-2.78-3.27,3.76,6.88,17.62-.88,26.6-5.59.64-4.09-9-10.59-8.13,4.14,9.87,13.25,21.48,4.34,32.76-4.29-4.51-5.41-12.76-13.8-12.08-.11,10.66,4.32,20.05,13.44,28.11-5.72,4.44-17.49-3.76-22-9.09,3.16,9.92,8.52,22.34-.35,33.38-4.75-6.55-3.53-16.82-15.13-19.33,1.92,17.24-48.54,65.72-57.57,86-13.08-21.17-19.6-56.9-12.74-79.85l35.7,14.61c-20.08-11.16-41.08-22.59-64-23.68-2.68-.13,8.23-53.85,21.58-74.25l29.47-13.72a213.36,213.36,0,0,1-64.09,23.76c21.19-28.12,16.61-63,21.56-95.51"/><path class="cls-6" d="M115.24,59.64c-6.88-5.54-15.19-19.21-17.86-25.92-.18-.1-8.27-24.16-8.45-24.25l14.71,12.32c12.81,14.92,20.7,16.3,30.76,32Z"/><path class="cls-3" d="M115.24,59.64c-6.88-5.54-15.19-19.21-17.86-25.92-.18-.1-8.27-24.16-8.45-24.25l14.71,12.32c12.81,14.92,20.7,16.3,30.76,32Z"/><path class="cls-7" d="M166.53,89.6S149.26,107.75,144.59,103s15.68,33.27,20.73,29.49,27.36-12.2,25.87-14S171.65,90.28,166.53,89.6Z"/><path class="cls-3" d="M166.53,89.6S149.26,107.75,144.59,103s15.68,33.27,20.73,29.49,27.36-12.2,25.87-14S171.65,90.28,166.53,89.6Z"/><path class="cls-8" d="M191.45,118.5s-18.06,8.42-27,14c-.35.23,38.32,56.3,34.57,50.15-2.39-3.91,15.9-32.45,18.43-34.16C219.52,147.11,197,119.15,191.45,118.5Z"/><path class="cls-3" d="M191.45,118.5s-18.06,8.42-27,14c-.35.23,38.32,56.3,34.57,50.15-2.39-3.91,15.9-32.45,18.43-34.16C219.52,147.11,197,119.15,191.45,118.5Z"/><path class="cls-9" d="M146.6,66.05s-14.84,16.66-18.93,12.21,13.8,30.83,18.16,27.38,23.93-12.43,22.62-14.14S151,66.71,146.6,66.05Z"/><path class="cls-3" d="M146.6,66.05s-14.84,16.66-18.93,12.21,13.8,30.83,18.16,27.38,23.93-12.43,22.62-14.14S151,66.71,146.6,66.05Z"/><path class="cls-10" d="M131,49s-14,13.43-17.67,10,12.29,24.24,16.37,21.44,22-9.15,20.81-10.49S135.07,49.49,131,49Z"/><path class="cls-3" d="M131,49s-14,13.43-17.67,10,12.29,24.24,16.37,21.44,22-9.15,20.81-10.49S135.07,49.49,131,49Z"/><ellipse class="cls-11" cx="188.7" cy="277.77" rx="21.25" ry="20.52"/><ellipse class="cls-12" cx="188.7" cy="277.77" rx="21.25" ry="20.52"/><path d="M199.85,183.12a108.83,108.83,0,0,1,7.71-17.77,85.36,85.36,0,0,1,4.83-8c1.36-1.94,3-3.69,5.2-4.27,3.73-1,2.15-6.77-1.59-5.78-6.56,1.72-10.14,8.76-13.18,14.23a116.18,116.18,0,0,0-8.76,20,3,3,0,1,0,5.79,1.59Z"/><path class="cls-13" d="M160.06,293c-1.79,6.4.05,11,6,14,7.1,3.63,15.38,4.79,23.2,5.73,2.23.27,2.21-3.23,0-3.5a81.17,81.17,0,0,1-18.05-3.82A21.82,21.82,0,0,1,166,303c-3.45-2.49-3.59-5.3-2.54-9.05.61-2.17-2.76-3.09-3.37-.93Z"/></svg>